<svg xmlns="http://www.w3.org/2000/svg" viewBox="0 0 106 106"><defs><style>.cls-1{fill:#fff;}.cls-2{fill:#ffc868;}.cls-3{fill:#485761;}.cls-4{fill:#171c1f;}.cls-5{opacity:0.25;}.cls-6{opacity:0.1;}</style></defs><title>lock</title><g id="Lock"><g id="Fill"><rect class="cls-1" x="15" y="43" width="76" height="59" rx="4" ry="4"/></g><g id="Yellow"><path class="cls-2" d="M53,2A27,27,0,0,0,26,29V39H36V29a17,17,0,1,1,34,0V39H80V29A27,27,0,0,0,53,2Z"/></g><g id="Dark_Blue" data-name="Dark Blue"><path class="cls-3" d="M61,67a8,8,0,1,0-12.4,6.68A4.94,4.94,0,0,0,48,76a5,5,0,0,0,10,0,4.94,4.94,0,0,0-.6-2.32A8,8,0,0,0,61,67Z"/></g><g id="Inner_Lines_1" data-name="Inner Lines 1"><path class="cls-4" d="M47.35,74a6,6,0,1,0,11.3,0,9,9,0,1,0-11.3,0ZM53,60a7,7,0,0,1,3,13.33,4,4,0,1,1-5.93,0A7,7,0,0,1,53,60ZM15,94v2H91V94Z"/></g><g id="Inner_Lines_2" data-name="Inner Lines 2" class="cls-5"><path d="M22,85H15v2h7a1,1,0,1,0,0-2Zm-1-5a1,1,0,0,0-1-1H15v2h5A1,1,0,0,0,21,80ZM17,68a1,1,0,0,0-1-1H15v2h1A1,1,0,0,0,17,68Zm2,6a1,1,0,0,0-1-1H15v2h3A1,1,0,0,0,19,74ZM85,54a1,1,0,0,0,1,1h5V53H86A1,1,0,0,0,85,54Zm-1-7a1,1,0,0,0,0,2h7V47Zm3,13a1,1,0,0,0,1,1h3V59H88A1,1,0,0,0,87,60Zm2,6a1,1,0,0,0,1,1h1V65H90A1,1,0,0,0,89,66Z"/></g><g id="Shadows" class="cls-6"><path d="M47.36,78h0v0ZM62,71a9,9,0,0,0-.23-2,9,9,0,0,1-3.13,5,5.76,5.76,0,0,1,0,4A9,9,0,0,0,62,71Zm-3.36,7v0ZM78,35H72v4h6ZM34,35H28v4h6Zm53,65H19a4,4,0,0,1-4-4v2a4,4,0,0,0,4,4H87a4,4,0,0,0,4-4V96A4,4,0,0,1,87,100ZM53,86a6,6,0,0,0,6-6,5.93,5.93,0,0,0-.36-2,6,6,0,0,1-11.28,0A5.93,5.93,0,0,0,47,80,6,6,0,0,0,53,86Zm-5.65-8a5.76,5.76,0,0,1,0-4,9,9,0,0,1-3.13-5,8.95,8.95,0,0,0,3.12,9Z"/></g><g id="Outline"><path class="cls-4" d="M87,39H82V29a29,29,0,1,0-58,0V39H19a8,8,0,0,0-8,8V98a8,8,0,0,0,8,8H87a8,8,0,0,0,8-8V47A8,8,0,0,0,87,39ZM28,29a25,25,0,1,1,50,0V39H72V29a19,19,0,1,0-38,0V39H28Zm40,0V39H38V29a15,15,0,1,1,30,0ZM91,98a4,4,0,0,1-4,4H19a4,4,0,0,1-4-4V47a4,4,0,0,1,4-4H87a4,4,0,0,1,4,4Z"/></g></g></svg>