<svg xmlns="http://www.w3.org/2000/svg" viewBox="0 0 106 106"><defs><style>.cls-1{fill:#fff;}.cls-2{fill:#ffc868;}.cls-3{fill:#485761;}.cls-4{fill:#171c1f;}.cls-5{opacity:0.25;}.cls-6{opacity:0.1;}</style></defs><title>shopping-cart</title><g id="Shopping_Cart" data-name="Shopping Cart"><g id="Fill"><polygon class="cls-1" points="101 24 16 24 25 68 87 68 104 30 101 24"/></g><g id="Yellow"><polygon class="cls-2" points="22 57 25 68 87 68 93 57 22 57"/></g><g id="Dark_Blue" data-name="Dark Blue"><path class="cls-3" d="M29,81a9,9,0,1,0,9,9A9,9,0,0,0,29,81Zm54,0a9,9,0,1,0,9,9A9,9,0,0,0,83,81Z"/></g><g id="Inner_Lines_1" data-name="Inner Lines 1"><path class="cls-4" d="M102,36V34H95.09L99,23H97L93.09,34H85.82L89,23H87L83.82,34H76.56L79,23H77L74.56,34H67l2-11H67L65,34H57.53L59,23H57L55.53,34h-8L48,23H46l-.49,11H36.73L36,23H34l.73,11H26L24,23H22l2,11H17v2h7.31l1.6,9H20v2h6.27l1.6,9H22v2h6.22L30,68h2L30.22,58h6.11L37,68h2l-.67-10h6.11L44,68h2l.44-10h5.89L51,68h2l1.33-10h6.44L59,68h2l1.78-10h6.44L67,68h2l2.22-10h5.67L74,68h2l2.89-10h5.67L81,68h2l3.56-10H92V56H87.27l3.2-9H96V45H91.18l3.2-9ZM27.91,45l-1.6-9h8.56l.6,9Zm2,11-1.6-9H35.6l.6,9Zm14.67,0H38.2l-.6-9h7.33ZM45,45H37.47l-.6-9h8.56Zm31.09-9h7.13l-2.6,9H74.11Zm-9.42,0h7.42l-2,9h-7ZM52.6,56H46.53l.4-9H53.8Zm1.47-11H47l.4-9h7.84Zm7.07,11H54.6l1.2-9h6.93ZM56.07,45l1.2-9h7.42l-1.6,9Zm13.6,11H63.13l1.6-9h6.93Zm7.8,0h-5.8l2-9h6.4Zm7.8,0h-5.8l2.6-9h6.4Zm3.91-11H82.64l2.6-9h7.13Z"/></g><g id="Inner_Lines_2" data-name="Inner Lines 2" class="cls-5"><path class="cls-4" d="M29,88a2,2,0,1,0,2,2A2,2,0,0,0,29,88Zm54,0a2,2,0,1,0,2,2A2,2,0,0,0,83,88Z"/></g><g id="Shadows" class="cls-6"><path d="M89,64H24v2H89ZM29,95a7,7,0,0,1-6.9-6,7,7,0,1,0,13.8,0A7,7,0,0,1,29,95Zm60.9-6a7,7,0,0,1-13.8,0,7,7,0,1,0,13.8,0Z"/></g><g id="Outline"><path class="cls-4" d="M106,29a7,7,0,0,0-7-7H17.08L14,6.6h0A2,2,0,0,0,12,5H2A2,2,0,0,0,2,9h8.36L24.73,79.86A11,11,0,1,0,37.49,83h37A11,11,0,1,0,83,79H29l-.36,0-1.83-9H85a7,7,0,0,0,6.47-4.34h0l14-33.92,0-.06v0h0A7,7,0,0,0,106,29ZM83,83a7,7,0,1,1-7,7A7,7,0,0,1,83,83ZM29,83a7,7,0,1,1-7,7A7,7,0,0,1,29,83Zm72.77-52.86v0l0,0-14,33.92A3,3,0,0,1,85,66H26L17.89,26H99a3,3,0,0,1,2.77,4.14Z"/></g></g></svg>