<?xml version="1.0" encoding="UTF-8"?>
<svg width="25px" height="23px" viewBox="0 0 25 23" version="1.1" xmlns="http://www.w3.org/2000/svg" xmlns:xlink="http://www.w3.org/1999/xlink">
    <!-- Generator: Sketch 42 (36781) - http://www.bohemiancoding.com/sketch -->
    <title>heart</title>
    <desc>Created with Sketch.</desc>
    <defs></defs>
    <g id="Page-1" stroke="none" stroke-width="1" fill="none" fill-rule="evenodd">
        <g id="Full-Color" transform="translate(-300.000000, -101.000000)">
            <g id="heart" transform="translate(300.000000, 101.000000)">
                <path d="M24.5,7 C24.5,3.41 21.59,0.5 18,0.5 C15.681,0.5 13.65,1.719 12.5,3.547 C11.35,1.719 9.319,0.5 7,0.5 C3.41,0.5 0.5,3.41 0.5,7 C0.5,7.169 0.513,7.334 0.525,7.5 L0.5,7.5 C0.5,16.5 11.5,22.5 12.5,22.5 C13.5,22.5 24.5,16.5 24.5,7.5 L24.475,7.5 C24.487,7.334 24.5,7.169 24.5,7" id="Fill-1" fill="#FF2C55"></path>
                <path d="M-0.0002,7.0002 C-0.0002,6.7695512 0.0118609344,6.53610512 0.0351901669,6.29836913 C0.0948520269,5.69038637 0.98454279,5.6997967 1.03133137,6.3089054 C1.30920064,9.92629665 3.42292338,13.3148708 6.73061013,16.2471793 C8.97779027,18.2393346 11.9525171,20.0002 12.4998,20.0002 C13.0470829,20.0002 16.0218097,18.2393346 18.2689899,16.2471793 C21.5766766,13.3148708 23.6903994,9.92629665 23.9682686,6.3089054 C24.0150678,5.69965848 24.9050314,5.69044645 24.9644319,6.2985941 C24.9877475,6.53730178 24.9998,6.77058476 24.9998,7.0002 C24.9998,7.12130537 24.9954041,7.22990126 24.985131,7.37948746 C24.9947145,7.41814554 24.9998,7.45857888 24.9998,7.5002 C24.9998,11.6373125 22.8124471,15.4570184 19.2119347,18.7444427 C16.7287351,21.0117119 13.4145883,23.0002 12.4998,23.0002 C11.5850117,23.0002 8.27086491,21.0117119 5.78766532,18.7444427 C2.18715294,15.4570184 -0.0002,11.6373125 -0.0002,7.5002 C-0.0002,7.4577332 0.00509425482,7.41650294 0.0150587451,7.37713324 C0.00473433441,7.23044282 -0.0002,7.11771542 -0.0002,7.0002 Z" id="Stroke-5" fill="#000000" fill-rule="nonzero" opacity="0.239999995"></path>
                <path d="M24.5,7 C24.5,3.41 21.59,0.5 18,0.5 C15.681,0.5 13.65,1.719 12.5,3.547 C11.35,1.719 9.319,0.5 7,0.5 C3.41,0.5 0.5,3.41 0.5,7 C0.5,7.169 0.513,7.334 0.525,7.5 L0.5,7.5 C0.5,16.5 11.5,22.5 12.5,22.5 C13.5,22.5 24.5,16.5 24.5,7.5 L24.475,7.5 C24.487,7.334 24.5,7.169 24.5,7 Z" id="Stroke-8" stroke="#000000" stroke-linecap="round" stroke-linejoin="round"></path>
            </g>
        </g>
    </g>
</svg>